<svg width="429" height="137" viewBox="0 0 429 137" fill="none" xmlns="http://www.w3.org/2000/svg">
<path d="M50.0874 112.268L46.3408 117.005L54.8174 130.2L53.9336 136.302H89.8935L92.383 130.2L77.9193 112.268H50.0874Z" fill="url(#paint0_linear_544_249)"/>
<path d="M69.754 31.9703L56.7467 54.6521L120.19 129.444L118.385 136.302H147.487L152.752 111.97L84.8649 31.9579L69.754 31.9703Z" fill="url(#paint1_linear_544_249)"/>
<path d="M78.3923 14.9186L72.2061 26.2657H87.5534L113.892 57.492L129.55 44.6815V36.5463L124.111 28.932L128.131 24.7652L96.7146 0L78.3923 14.9186Z" fill="url(#paint2_linear_544_249)"/>
<path d="M31.1677 78.1275H22.5916L0 106.7V136.302H24.2347L28.5165 130.758L47.2121 106.638H74.2599L82.587 93.9267L53.2615 59.2529L31.1677 78.1275Z" fill="url(#paint3_linear_544_249)"/>
<path fill-rule="evenodd" clip-rule="evenodd" d="M262.795 93.3223H283.895V61.0847H262.795V93.3223ZM263.534 106.217C257.661 106.217 254.61 105.266 252.097 102.652C248.321 98.8717 246.856 93.6172 246.856 77.3308C246.856 61.0445 248.321 55.7899 252.097 51.9026C254.516 49.3826 257.661 48.4309 263.534 48.4309H283.156C289.029 48.4309 292.079 49.3826 294.593 51.9026C298.369 55.7899 299.834 60.9372 299.834 77.3308C299.834 93.7244 298.369 98.8717 294.593 102.652C292.079 105.279 289.029 106.217 283.156 106.217H263.534Z" fill="#181C1F"/>
<path fill-rule="evenodd" clip-rule="evenodd" d="M347.557 66.6476C347.557 66.8487 347.557 67.0498 347.557 67.2642V106.204H363.604V65.3742C363.604 56.9026 362.663 53.8598 360.244 51.5543C358.04 49.3559 354.882 48.364 349.95 48.364L335.838 48.4042L327.748 55.6828V48.4042H322.332H311.755V106.191H327.801V61.058H347.531V66.6208L347.557 66.6476Z" fill="#181C1F"/>
<path fill-rule="evenodd" clip-rule="evenodd" d="M221.751 32.5063H240.862L213.419 67.1433L242.018 106.204H221.751L199.993 75.5211L194.832 75.4943V106.204H177.63V32.5063H194.832V61.0711H199.993L221.751 32.5063Z" fill="#181C1F"/>
<path fill-rule="evenodd" clip-rule="evenodd" d="M412.859 48.4184V55.697L404.769 48.4184L392.727 48.3782C386.961 48.3782 383.575 49.3701 380.954 51.8767C377.487 55.4289 375.807 63.2034 375.807 77.4389C375.807 91.6744 377.177 99.1273 380.524 102.586C383.145 105.092 386.263 106.205 392.458 106.205H412.819L412.846 114.475L384.583 114.529L384.609 117.92L391.907 125.99H414.001C419.874 125.99 423.234 124.944 425.331 122.746C427.951 120.025 429 118.336 429 108.403V48.4318H412.846L412.859 48.4184ZM412.967 93.2561H391.867V61.0721H412.953V93.2561H412.967Z" fill="#181C1F"/>
<defs>
<linearGradient id="paint0_linear_544_249" x1="0.127146" y1="136.224" x2="118.41" y2="17.0943" gradientUnits="userSpaceOnUse">
<stop stop-color="#1155CB"/>
<stop offset="1" stop-color="#1DB57C"/>
</linearGradient>
<linearGradient id="paint1_linear_544_249" x1="0.127146" y1="136.224" x2="118.41" y2="17.0943" gradientUnits="userSpaceOnUse">
<stop stop-color="#1155CB"/>
<stop offset="1" stop-color="#1DB57C"/>
</linearGradient>
<linearGradient id="paint2_linear_544_249" x1="0.127146" y1="136.224" x2="118.41" y2="17.0943" gradientUnits="userSpaceOnUse">
<stop stop-color="#1155CB"/>
<stop offset="1" stop-color="#1DB57C"/>
</linearGradient>
<linearGradient id="paint3_linear_544_249" x1="0.127146" y1="136.224" x2="118.41" y2="17.0943" gradientUnits="userSpaceOnUse">
<stop stop-color="#1155CB"/>
<stop offset="1" stop-color="#1DB57C"/>
</linearGradient>
</defs>
</svg>
