<?xml version="1.0" encoding="UTF-8"?>
<svg id="Layer_1" xmlns="http://www.w3.org/2000/svg" version="1.1" viewBox="0 0 429 137">
  <!-- Generator: Adobe Illustrator 30.1.0, SVG Export Plug-In . SVG Version: 2.1.1 Build 136)  -->
  <defs>
    <style>
      .st0 {
        fill: #35363a;
        fill-rule: evenodd;
      }
    </style>
  </defs>
  <g>
    <path d="M50.1,113l-3.7,4.7,8.5,13.2-.9,6.1h36l2.5-6.1-14.5-17.9h-27.8Z"/>
    <path d="M69.8,32.7l-13,22.7,63.4,74.8-1.8,6.9h29.1l5.3-24.3L84.9,32.7h-15.1Z"/>
    <path d="M78.4,15.6l-6.2,11.3h15.3l26.3,31.2,15.7-12.8v-8.1l-5.4-7.6,4-4.2L96.7.7l-18.3,14.9Z"/>
    <path d="M31.2,78.8h-8.6L0,107.4v29.6h24.2l4.3-5.5,18.7-24.1h27l8.3-12.7-29.3-34.7-22.1,18.9Z"/>
  </g>
  <g>
    <path class="st0" d="M262.8,94h21.1v-32.2h-21.1v32.2ZM263.5,106.9c-5.9,0-8.9-1-11.4-3.6-3.8-3.8-5.2-9-5.2-25.3s1.5-21.5,5.2-25.4c2.4-2.5,5.6-3.5,11.4-3.5h19.6c5.9,0,8.9,1,11.4,3.5,3.8,3.9,5.2,9,5.2,25.4s-1.5,21.5-5.2,25.3c-2.5,2.6-5.6,3.6-11.4,3.6h-19.6Z"/>
    <path class="st0" d="M347.5,67.3v39.6h16v-40.8c0-8.5-.9-11.5-3.4-13.8-2.2-2.2-5.4-3.2-10.3-3.2h-14.1s-8.1,7.3-8.1,7.3v-7.3h-16v57.8h16v-45.1h19.7v5.6h0Z"/>
    <path class="st0" d="M221.7,33.2h19.1l-27.4,34.6,28.6,39.1h-20.3l-21.8-30.7h-5.2s0,30.7,0,30.7h-17.2V33.2h17.2v28.6h5.2l21.8-28.6Z"/>
    <path class="st0" d="M412.9,49.1v7.3l-8.1-7.3h-12c-5.8,0-9.2,1-11.8,3.5-3.5,3.6-5.1,11.3-5.1,25.6s1.4,21.7,4.7,25.1c2.6,2.5,5.7,3.6,11.9,3.6h20.4v8.3s-28.2,0-28.2,0v3.4s7.3,8.1,7.3,8.1h22.1c5.9,0,9.2-1,11.3-3.2,2.6-2.7,3.7-4.4,3.7-14.3v-60h-16.2,0ZM413,94h-21.1v-32.2h21.1v32.2h0Z"/>
  </g>
</svg>