<svg width="153" height="137" viewBox="0 0 153 137" fill="none" xmlns="http://www.w3.org/2000/svg">
<path d="M50.0874 112.268L46.3408 117.005L54.8174 130.2L53.9336 136.302H89.8935L92.383 130.2L77.9193 112.268H50.0874Z" fill="url(#paint0_linear_544_235)"/>
<path d="M69.754 31.9703L56.7467 54.6521L120.19 129.444L118.385 136.302H147.487L152.752 111.97L84.8649 31.9579L69.754 31.9703Z" fill="url(#paint1_linear_544_235)"/>
<path d="M78.3923 14.9186L72.2061 26.2657H87.5534L113.892 57.492L129.55 44.6815V36.5463L124.111 28.932L128.131 24.7652L96.7146 0L78.3923 14.9186Z" fill="url(#paint2_linear_544_235)"/>
<path d="M31.1677 78.1275H22.5916L0 106.7V136.302H24.2347L28.5165 130.758L47.2121 106.638H74.2599L82.587 93.9267L53.2615 59.2529L31.1677 78.1275Z" fill="url(#paint3_linear_544_235)"/>
<defs>
<linearGradient id="paint0_linear_544_235" x1="0.127146" y1="136.224" x2="118.41" y2="17.0943" gradientUnits="userSpaceOnUse">
<stop stop-color="#1155CB"/>
<stop offset="1" stop-color="#1DB57C"/>
</linearGradient>
<linearGradient id="paint1_linear_544_235" x1="0.127146" y1="136.224" x2="118.41" y2="17.0943" gradientUnits="userSpaceOnUse">
<stop stop-color="#1155CB"/>
<stop offset="1" stop-color="#1DB57C"/>
</linearGradient>
<linearGradient id="paint2_linear_544_235" x1="0.127146" y1="136.224" x2="118.41" y2="17.0943" gradientUnits="userSpaceOnUse">
<stop stop-color="#1155CB"/>
<stop offset="1" stop-color="#1DB57C"/>
</linearGradient>
<linearGradient id="paint3_linear_544_235" x1="0.127146" y1="136.224" x2="118.41" y2="17.0943" gradientUnits="userSpaceOnUse">
<stop stop-color="#1155CB"/>
<stop offset="1" stop-color="#1DB57C"/>
</linearGradient>
</defs>
</svg>
